<?xml version="1.0" standalone="no"?>
<!DOCTYPE svg PUBLIC "-//W3C//DTD SVG 20010904//EN"
 "http://www.w3.org/TR/2001/REC-SVG-20010904/DTD/svg10.dtd">
<svg version="1.0" xmlns="http://www.w3.org/2000/svg"
 width="300.000000pt" height="300.000000pt" viewBox="0 0 300.000000 300.000000"
 preserveAspectRatio="xMidYMid meet">
<metadata>
Created by potrace 1.10, written by Peter Selinger 2001-2011
</metadata>
<g transform="translate(0.000000,300.000000) scale(0.100000,-0.100000)"
fill="#000000" stroke="none">
<path d="M1596 2229 c-78 -61 -73 -144 14 -283 32 -51 45 -64 55 -56 7 6 32
49 56 96 36 71 43 95 44 144 0 71 -21 100 -72 100 -49 0 -83 -37 -83 -90 0
-61 53 -103 88 -68 20 20 15 76 -7 88 -25 13 -31 13 -31 0 0 -5 6 -10 14 -10
20 0 29 -35 16 -60 -14 -26 -27 -22 -53 12 -23 31 -18 67 15 98 28 25 53 25
78 0 34 -34 27 -102 -19 -197 -22 -44 -44 -83 -49 -87 -5 -3 -21 11 -34 32
-50 75 -68 120 -68 172 0 43 4 56 28 78 15 15 37 32 47 39 16 10 17 12 4 12
-9 1 -28 -8 -43 -20z"/>
<path d="M1391 2154 c-91 -24 -239 -119 -219 -140 4 -4 20 5 34 20 30 30 135
96 153 96 18 0 13 -20 -14 -52 -34 -40 -35 -61 -8 -145 22 -68 10 -98 -47
-113 -22 -6 -62 -30 -90 -55 -77 -69 -83 -61 -38 52 27 66 20 85 -29 81 -33
-3 -41 -8 -57 -42 -24 -49 -33 -173 -17 -245 51 -237 274 -391 518 -359 223
30 394 226 393 450 -1 89 -12 140 -46 213 -27 57 -128 174 -140 163 -3 -4 17
-30 45 -59 89 -91 141 -238 126 -359 -10 -77 -30 -114 -92 -167 -50 -43 -54
-49 -48 -79 5 -31 2 -36 -42 -68 -82 -60 -153 -81 -268 -81 -91 1 -106 3 -169
33 -38 18 -84 44 -102 57 -29 22 -32 29 -27 60 4 28 0 42 -21 70 l-27 35 23
40 23 39 -23 23 c-17 17 -34 23 -67 23 -43 0 -45 2 -51 32 -8 45 22 185 43
201 26 18 53 15 53 -7 0 -11 -9 -41 -20 -67 -22 -51 -23 -95 -3 -101 7 -3 35
16 62 42 28 26 66 51 88 57 21 5 46 17 56 26 22 19 22 73 1 136 -13 38 -14 52
-4 76 6 16 18 31 25 33 7 3 16 18 20 34 9 36 20 43 77 43 26 0 50 5 53 10 9
15 -60 11 -124 -6z m-230 -534 c23 -13 25 -43 4 -60 -22 -18 -18 -52 10 -90
25 -34 33 -70 15 -70 -22 0 -98 135 -114 203 -6 26 -5 27 29 27 20 0 45 -5 56
-10z m744 -127 c-9 -16 -29 -44 -45 -63 -29 -34 -29 -34 -30 -10 0 17 13 37
42 62 24 21 44 38 46 38 2 0 -4 -12 -13 -27z"/>
<path d="M1602 1840 c-19 -20 -20 -20 -50 -3 -30 17 -32 17 -49 0 -27 -27 -6
-52 45 -52 22 0 44 -3 48 -7 4 -5 31 -8 59 -8 87 0 130 -53 98 -119 -17 -34
-63 -56 -138 -66 -86 -11 -118 -27 -167 -77 -25 -26 -53 -48 -62 -48 -25 0
-30 27 -12 53 68 92 66 87 66 166 0 42 4 83 9 91 6 8 7 18 4 23 -12 20 -23
-22 -23 -90 0 -83 -10 -113 -50 -160 -34 -38 -39 -78 -12 -91 25 -14 56 2 88
43 34 44 64 61 129 70 138 18 195 54 195 119 0 62 -58 106 -138 106 -52 0 -57
8 -25 42 15 15 22 28 15 28 -6 0 -20 -9 -30 -20z m-47 -30 c0 -22 -39 -19 -43
3 -3 15 1 18 20 15 12 -2 23 -10 23 -18z"/>
<path d="M1565 1401 c-16 -11 -40 -30 -52 -44 -13 -13 -37 -27 -54 -31 -34 -7
-59 -23 -59 -37 0 -5 10 -3 23 5 12 7 35 17 50 20 16 4 47 25 70 46 48 47 82
52 99 15 6 -14 16 -26 22 -26 39 -4 76 -3 76 2 0 12 -25 17 -53 12 -20 -4 -27
-1 -27 10 0 16 -36 47 -55 47 -5 0 -23 -9 -40 -19z"/>
<path d="M652 1212 c2 -5 16 -43 33 -85 16 -42 33 -77 37 -77 3 0 9 13 13 30
10 43 22 45 35 5 6 -19 15 -35 18 -35 4 0 20 35 37 78 16 42 31 80 33 85 2 4
-5 7 -16 7 -15 0 -24 -11 -33 -37 -19 -59 -22 -60 -39 -7 l-17 49 -13 -42 c-7
-24 -16 -43 -20 -43 -4 0 -12 18 -19 40 -9 30 -17 40 -32 40 -11 0 -19 -4 -17
-8z"/>
<path d="M905 1197 c-58 -49 -22 -147 52 -147 46 0 68 13 83 49 36 87 -64 159
-135 98z m89 -23 c31 -31 10 -94 -31 -94 -24 0 -53 30 -53 53 0 26 28 57 51
57 10 0 25 -7 33 -16z"/>
<path d="M1080 1136 c0 -78 2 -86 19 -86 17 0 19 5 14 35 -4 23 -2 35 6 35 6
0 19 -16 28 -35 10 -21 24 -35 35 -35 23 0 22 9 -2 40 -19 25 -19 25 3 48 20
21 20 25 6 50 -12 22 -23 28 -62 30 l-47 3 0 -85z m75 29 c0 -30 -39 -27 -43
3 -3 20 0 23 20 20 15 -2 23 -10 23 -23z"/>
<path d="M1225 1135 l0 -85 43 0 c31 0 42 4 42 15 0 9 -9 15 -25 15 -24 0 -25
2 -25 70 0 60 -3 70 -17 70 -16 0 -18 -11 -18 -85z"/>
<path d="M1340 1135 l0 -85 39 0 c56 0 95 35 95 85 0 50 -39 85 -95 85 l-39 0
0 -85z m78 39 c26 -18 29 -56 6 -79 -29 -29 -48 -15 -49 35 -1 66 4 72 43 44z"/>
<path d="M1578 1135 l-3 -85 43 0 c31 0 42 4 42 15 0 9 -9 15 -25 15 -18 0
-25 5 -25 20 0 15 7 20 25 20 16 0 25 6 25 15 0 9 -9 15 -25 15 -19 0 -25 5
-25 21 0 17 5 20 25 17 19 -4 25 -1 25 13 0 15 -8 19 -39 19 l-40 0 -3 -85z"/>
<path d="M1690 1214 c0 -4 9 -22 21 -40 l20 -33 -26 -46 c-26 -44 -26 -45 -6
-45 13 0 26 10 33 25 6 14 14 25 18 25 4 0 12 -11 18 -25 7 -15 20 -25 32 -25
26 0 25 2 -6 50 l-26 39 21 34 c26 42 26 47 2 47 -11 0 -23 -9 -26 -20 -3 -11
-10 -20 -15 -20 -5 0 -12 9 -15 20 -6 18 -45 30 -45 14z"/>
<path d="M1841 1135 c0 -78 2 -85 20 -85 15 0 19 7 19 36 0 29 3 35 16 30 25
-10 64 20 64 49 0 36 -26 55 -75 55 l-44 0 0 -85z m79 45 c0 -5 0 -13 1 -17 0
-4 -9 -10 -20 -15 -18 -6 -21 -3 -21 17 0 18 5 25 20 25 11 0 20 -4 20 -10z"/>
<path d="M1990 1135 l0 -85 45 0 c33 0 45 4 45 15 0 10 -10 15 -30 15 l-30 0
0 70 c0 56 -3 70 -15 70 -12 0 -15 -16 -15 -85z"/>
<path d="M2125 1195 c-54 -53 -16 -145 60 -145 49 0 85 36 85 85 0 25 -8 44
-25 60 -16 17 -35 25 -60 25 -25 0 -44 -8 -60 -25z m95 -25 c11 -11 20 -27 20
-35 0 -8 -9 -24 -20 -35 -11 -11 -27 -20 -35 -20 -8 0 -24 9 -35 20 -11 11
-20 27 -20 35 0 8 9 24 20 35 11 11 27 20 35 20 8 0 24 -9 35 -20z"/>
<path d="M2300 1135 c0 -79 1 -85 21 -85 17 0 20 5 17 31 -4 41 13 42 32 2 11
-23 22 -33 38 -33 l23 0 -20 29 c-23 31 -27 51 -11 51 5 0 12 11 16 25 10 39
-19 65 -73 65 l-43 0 0 -85z m78 43 c8 -8 9 -15 1 -25 -18 -21 -39 -15 -39 12
0 27 18 33 38 13z"/>
<path d="M2450 1135 l0 -85 45 0 c33 0 45 4 45 15 0 10 -10 15 -30 15 -23 0
-30 4 -30 20 0 15 7 20 25 20 16 0 25 6 25 15 0 9 -9 15 -25 15 -19 0 -25 5
-25 21 0 17 5 20 25 17 19 -4 25 -1 25 13 0 15 -8 19 -40 19 l-40 0 0 -85z"/>
<path d="M2570 1135 c0 -69 3 -85 15 -85 10 0 15 11 15 35 0 19 5 35 10 35 6
0 18 -16 27 -35 11 -22 24 -35 36 -35 19 0 19 1 0 33 -20 32 -20 33 0 59 19
25 19 28 3 52 -14 22 -24 26 -61 26 l-45 0 0 -85z m75 30 c0 -30 -39 -27 -43
3 -3 20 0 23 20 20 15 -2 23 -10 23 -23z"/>
</g>
</svg>
